<mxfile host="app.diagrams.net" modified="2020-09-23T10:40:03.001Z" agent="5.0 (Windows NT 10.0; Win64; x64) AppleWebKit/537.36 (KHTML, like Gecko) Chrome/85.0.4183.102 Safari/537.36" etag="vNEjZ9tamJz8Gyxdo1cc" version="13.7.3" type="github">
  <diagram id="SsXb-CvrjFpm6ET1KRp2" name="Page-1">
    <mxGraphModel dx="1221" dy="689" grid="1" gridSize="10" guides="1" tooltips="1" connect="1" arrows="1" fold="1" page="1" pageScale="1" pageWidth="850" pageHeight="1100" math="0" shadow="0">
      <root>
        <mxCell id="0" />
        <mxCell id="1" parent="0" />
        <mxCell id="WbbLqHk9ZtYrCYDzgkus-1" value="TB-Panel&lt;br&gt;" style="shape=rect;html=1;verticalAlign=top;fontStyle=1;whiteSpace=wrap;align=center;" vertex="1" parent="1">
          <mxGeometry x="160" y="40" width="560" height="980" as="geometry" />
        </mxCell>
        <mxCell id="WbbLqHk9ZtYrCYDzgkus-2" value="Operator1" style="shape=umlActor;verticalLabelPosition=bottom;verticalAlign=top;html=1;outlineConnect=0;" vertex="1" parent="1">
          <mxGeometry x="60" y="200" width="30" height="60" as="geometry" />
        </mxCell>
        <mxCell id="WbbLqHk9ZtYrCYDzgkus-5" value="Use Case" style="ellipse;whiteSpace=wrap;html=1;" vertex="1" parent="1">
          <mxGeometry x="270" y="100" width="140" height="70" as="geometry" />
        </mxCell>
      </root>
    </mxGraphModel>
  </diagram>
</mxfile>
